<svg xmlns="http://www.w3.org/2000/svg" viewBox="0 0 512 512"><title>github-white</title><path d="M256,0C114.61,0,0,114.61,0,256S114.61,512,256,512,512,397.39,512,256,397.39,0,256,0ZM408,408a214.35,214.35,0,0,1-68.35,46.09q-9.75,4.13-19.8,7.25V423q0-30.25-20.75-44.5A224,224,0,0,0,323,375a180.19,180.19,0,0,0,23-6.5,113.94,113.94,0,0,0,21.75-10.12,90.69,90.69,0,0,0,18.5-15.25,89.21,89.21,0,0,0,14.88-21.25,116.48,116.48,0,0,0,9.5-28.5,178,178,0,0,0,3.5-36.62q0-38.75-25.25-66,11.5-30-2.5-65.25l-6.25-.75q-6.5-.75-23.37,5.5t-37.87,20.5a230,230,0,0,0-61.75-8.25,225.51,225.51,0,0,0-61.5,8.25,214.12,214.12,0,0,0-25.12-14.87,129.34,129.34,0,0,0-19-8,65.16,65.16,0,0,0-13.25-2.62,47,47,0,0,0-7.87-.25,16,16,0,0,0-2.5.5q-14,35.5-2.5,65.25-25.25,27.25-25.25,66a178.07,178.07,0,0,0,3.5,36.63,116.53,116.53,0,0,0,9.5,28.5A89.24,89.24,0,0,0,128,343.13a90.75,90.75,0,0,0,18.5,15.25,114,114,0,0,0,21.75,10.13,180.24,180.24,0,0,0,23,6.5,224.05,224.05,0,0,0,23.88,3.5q-20.5,14-20.5,44.5v39.11a215.13,215.13,0,0,1-22.3-404.24A215,215,0,0,1,408,408Z" fill="#fff"/></svg>